<?xml version="1.0" encoding="UTF-8" standalone="no"?>
<!-- Created with Inkscape (http://www.inkscape.org/) -->

<svg
   width="529.35614mm"
   height="99.930916mm"
   viewBox="0 0 529.35614 99.930916"
   version="1.1"
   id="svg1"
   xml:space="preserve"
   xmlns="http://www.w3.org/2000/svg"
   xmlns:svg="http://www.w3.org/2000/svg"><defs
     id="defs1" /><g
     id="layer1"
     transform="translate(-534.87037,658.76591)"><g
       id="g51"
       transform="translate(853.04022,-442.41389)"><g
         id="g50"
         transform="matrix(1.4620905,0,0,1.4620905,169.47011,63.45715)"><path
           style="fill:#ffffff;fill-opacity:1"
           d="m -280.3269,-160.85273 c 0.39257,-0.42501 0.45254,-1.43843 0.5289,-8.93799 0.0634,-6.22618 0.003,-8.54326 -0.22814,-8.77934 -0.23131,-0.23618 -2.55479,-0.34353 -8.80928,-0.40721 -6.38251,-0.065 -8.60477,-0.1698 -8.9363,-0.42171 -0.38549,-0.29289 -0.44265,-1.0542 -0.45228,-6.0242 l -0.011,-5.68894 -5.99059,-0.132 -5.99058,-0.13199 -1.48188,2.17274 c -4.41455,6.47262 -11.37329,10.57126 -19.14822,11.27816 -0.98199,0.0893 -1.9088,0.30794 -2.05957,0.48591 -0.17707,0.20906 -0.27781,3.12229 -0.2845,8.22945 l -0.0104,7.90588 2.77831,-0.002 c 6.68285,-0.006 14.14943,-2.43878 20.88002,-6.80354 2.10428,-1.36462 3.8542,-2.8234 6.43802,-5.3668 1.95155,-1.92103 3.69998,-3.49125 3.88543,-3.48936 0.90734,0.009 0.96651,0.55911 0.88816,8.25515 -0.0738,7.25331 -0.0536,7.6234 0.43147,7.88939 0.31985,0.17539 3.59672,0.31053 8.81928,0.3637 7.71492,0.0786 8.34206,0.0502 8.75312,-0.39476 z"
           id="path49" /><path
           style="fill:#ffffff;fill-opacity:1"
           d="m -301.87936,-124.93382 c 4.29265,-6.58416 11.4712,-10.8629 19.36078,-11.53991 1.0877,-0.0933 1.84469,-0.29986 2.05634,-0.56101 0.52768,-0.65107 0.62675,-15.32716 0.10741,-15.91289 -0.83049,-0.93668 -8.47244,0.10378 -13.74832,1.87183 -6.84862,2.29511 -14.37941,7.38273 -18.61412,12.57523 -0.80906,0.99206 -1.0376,1.12754 -1.63723,0.97053 l -0.69692,-0.18247 0.0779,-7.64858 c 0.0672,-6.6005 0.0215,-7.70613 -0.33364,-8.06857 -0.35671,-0.36402 -1.52178,-0.43129 -8.74396,-0.50482 -5.23781,-0.0533 -8.52354,0.015 -8.84698,0.18384 -0.49241,0.25717 -0.51826,0.63651 -0.60175,8.83623 -0.048,4.71216 -0.0169,8.75663 0.0691,8.98769 0.13818,0.3713 1.16603,0.43042 8.84383,0.50858 l 8.68748,0.0884 0.41302,0.59957 c 0.34535,0.50173 0.3999,1.45219 0.33259,5.81728 -0.0442,2.86976 -0.006,5.34083 0.0847,5.49126 0.10497,0.17402 2.30969,0.29536 6.05625,0.33349 l 5.89102,0.06 z"
           id="path50" /></g><text
         xml:space="preserve"
         style="font-style:normal;font-variant:normal;font-weight:bold;font-stretch:normal;font-size:52.9167px;font-family:Poppins;-inkscape-font-specification:'Poppins Bold';text-align:center;letter-spacing:-0.611188px;text-anchor:middle;fill:#ffffff;fill-opacity:1;stroke-width:0.264583"
         x="-0.58210403"
         y="-145.8549"
         id="text51"><tspan
           id="tspan51"
           x="-0.88770521"
           y="-145.8549"
           style="font-style:normal;font-variant:normal;font-weight:bold;font-stretch:normal;font-size:52.9167px;font-family:Poppins;-inkscape-font-specification:'Poppins Bold';letter-spacing:-0.611188px;fill:#ffffff;fill-opacity:1;stroke-width:0.264583"><tspan
   style="font-size:52.9167px;fill:#34d058;fill-opacity:1"
   id="tspan50">Zeta</tspan>Confluence</tspan></text></g></g></svg>
